# xmcd
#
# Track frame offsets:
#       150
#       16042
#       33305
#       47450
#       64170
#       79800
#       91387
#       102747
#       115840
#       132875
#       147395
#       159060
#       173120
#       186505
#       198647
#       210565
#       218637
#       233187
#       248635
#       261770
#       274655
#       283287
#       291630
#       304490
#       317262
#
# Disc length: 4437 seconds
#
# Revision: 3
# Processed by: cddbd v1.5.2PL0 Copyright (c) Steve Scherf et al.
# Submitted via: FreeDbEdit v0.1
#
DISCID=73115319
DTITLE=Nat King Cole - Unforgettable
DYEAR=2001
DGENRE=Jazz
TTITLE0=Unforgettable (With Natalie Cole)
TTITLE1=The Very Thought of You
TTITLE2=It'sonly a Paper Moon
TTITLE3=(Get Your Kicks On) Route 66!
TTITLE4=Mona Lisa
TTITLE5=Love
TTITLE6=This Can't Be Love
TTITLE7=Smaile
TTITLE8=Lush Life
TTITLE9=That Sunday, That Summer
TTITLE10=Orange Colored
TTITLE11=(I Love You) For Sentimental Reasons
TTITLE12=Tenderly
TTITLE13=Autumn Leaves
TTITLE14=Straighten
TTITLE15=Avalon
TTITLE16=Don't Get Around Much Anymore
TTITLE17=Too Young
TTITLE18=Nature Boy
TTITLE19=Darling, Je Vous Aime Beaucoup
TTITLE20=Almost Like Being in Love
TTITLE21=Thou Swell
TTITLE22=Non Dimenticar
TTITLE23=Our Love Is Here to Stay
TTITLE24=Unforgettable
EXTD=YEAR: 2001
EXTT0=
EXTT1=
EXTT2=
EXTT3=
EXTT4=
EXTT5=
EXTT6=
EXTT7=
EXTT8=
EXTT9=
EXTT10=
EXTT11=
EXTT12=
EXTT13=
EXTT14=
EXTT15=
EXTT16=
EXTT17=
EXTT18=
EXTT19=
EXTT20=
EXTT21=
EXTT22=
EXTT23=
EXTT24=
PLAYORDER=
